<svg width="71" height="70" viewBox="0 0 71 70" fill="none" xmlns="http://www.w3.org/2000/svg">
<path d="M37.3292 68.2781C55.127 68.2781 69.6583 54.1697 69.6583 36.639C69.6583 19.1086 55.127 5 37.3292 5C19.5315 5 5 19.1086 5 36.639C5 54.1697 19.5315 68.2781 37.3292 68.2781Z" fill="white" stroke="#6B6B6B" stroke-width="1.5625"/>
<path d="M33.3292 64.2781C51.127 64.2781 65.6583 50.1697 65.6583 32.639C65.6583 15.1086 51.127 1 33.3292 1C15.5315 1 1 15.1086 1 32.639C1 50.1697 15.5315 64.2781 33.3292 64.2781Z" fill="white" stroke="#6B6B6B" stroke-width="1.5625"/>
<mask id="path-3-outside-1_2_562" maskUnits="userSpaceOnUse" x="17" y="14" width="32" height="38" fill="black">
<rect fill="white" x="17" y="14" width="32" height="38"/>
<path d="M32.6289 50.672C29.8769 50.672 27.2209 50.336 24.6609 49.664C22.1329 48.96 20.0689 48.064 18.4689 46.976L21.5889 39.968C23.0929 40.928 24.8209 41.728 26.7729 42.368C28.7569 42.976 30.7249 43.28 32.6769 43.28C33.9889 43.28 35.0449 43.168 35.8449 42.944C36.6449 42.688 37.2209 42.368 37.5729 41.984C37.9569 41.568 38.1489 41.088 38.1489 40.544C38.1489 39.776 37.7969 39.168 37.0929 38.72C36.3889 38.272 35.4769 37.904 34.3569 37.616C33.2369 37.328 31.9889 37.04 30.6129 36.752C29.2689 36.464 27.9089 36.096 26.5329 35.648C25.1889 35.2 23.9569 34.624 22.8369 33.92C21.7169 33.184 20.8049 32.24 20.1009 31.088C19.3969 29.904 19.0449 28.416 19.0449 26.624C19.0449 24.608 19.5889 22.784 20.6769 21.152C21.7969 19.52 23.4609 18.208 25.6689 17.216C27.8769 16.224 30.6289 15.728 33.9249 15.728C36.1329 15.728 38.2929 15.984 40.4049 16.496C42.5489 16.976 44.4529 17.696 46.1169 18.656L43.1889 25.712C41.5889 24.848 40.0049 24.208 38.4369 23.792C36.8689 23.344 35.3489 23.12 33.8769 23.12C32.5649 23.12 31.5089 23.264 30.7089 23.552C29.9089 23.808 29.3329 24.16 28.9809 24.608C28.6289 25.056 28.4529 25.568 28.4529 26.144C28.4529 26.88 28.7889 27.472 29.4609 27.92C30.1649 28.336 31.0769 28.688 32.1969 28.976C33.3489 29.232 34.5969 29.504 35.9409 29.792C37.3169 30.08 38.6769 30.448 40.0209 30.896C41.3969 31.312 42.6449 31.888 43.7649 32.624C44.8849 33.328 45.7809 34.272 46.4529 35.456C47.1569 36.608 47.5089 38.064 47.5089 39.824C47.5089 41.776 46.9489 43.584 45.8289 45.248C44.7409 46.88 43.0929 48.192 40.8849 49.184C38.7089 50.176 35.9569 50.672 32.6289 50.672Z"/>
</mask>
<path d="M32.6289 50.672C29.8769 50.672 27.2209 50.336 24.6609 49.664C22.1329 48.96 20.0689 48.064 18.4689 46.976L21.5889 39.968C23.0929 40.928 24.8209 41.728 26.7729 42.368C28.7569 42.976 30.7249 43.28 32.6769 43.28C33.9889 43.28 35.0449 43.168 35.8449 42.944C36.6449 42.688 37.2209 42.368 37.5729 41.984C37.9569 41.568 38.1489 41.088 38.1489 40.544C38.1489 39.776 37.7969 39.168 37.0929 38.72C36.3889 38.272 35.4769 37.904 34.3569 37.616C33.2369 37.328 31.9889 37.04 30.6129 36.752C29.2689 36.464 27.9089 36.096 26.5329 35.648C25.1889 35.2 23.9569 34.624 22.8369 33.92C21.7169 33.184 20.8049 32.24 20.1009 31.088C19.3969 29.904 19.0449 28.416 19.0449 26.624C19.0449 24.608 19.5889 22.784 20.6769 21.152C21.7969 19.52 23.4609 18.208 25.6689 17.216C27.8769 16.224 30.6289 15.728 33.9249 15.728C36.1329 15.728 38.2929 15.984 40.4049 16.496C42.5489 16.976 44.4529 17.696 46.1169 18.656L43.1889 25.712C41.5889 24.848 40.0049 24.208 38.4369 23.792C36.8689 23.344 35.3489 23.12 33.8769 23.12C32.5649 23.12 31.5089 23.264 30.7089 23.552C29.9089 23.808 29.3329 24.16 28.9809 24.608C28.6289 25.056 28.4529 25.568 28.4529 26.144C28.4529 26.88 28.7889 27.472 29.4609 27.92C30.1649 28.336 31.0769 28.688 32.1969 28.976C33.3489 29.232 34.5969 29.504 35.9409 29.792C37.3169 30.08 38.6769 30.448 40.0209 30.896C41.3969 31.312 42.6449 31.888 43.7649 32.624C44.8849 33.328 45.7809 34.272 46.4529 35.456C47.1569 36.608 47.5089 38.064 47.5089 39.824C47.5089 41.776 46.9489 43.584 45.8289 45.248C44.7409 46.88 43.0929 48.192 40.8849 49.184C38.7089 50.176 35.9569 50.672 32.6289 50.672Z" fill="#18191F"/>
<path d="M24.6609 49.664L24.3927 50.6273L24.3998 50.6293L24.407 50.6312L24.6609 49.664ZM18.4689 46.976L17.5554 46.5693L17.2154 47.3329L17.9066 47.8029L18.4689 46.976ZM21.5889 39.968L22.127 39.1251L21.1478 38.5001L20.6754 39.5613L21.5889 39.968ZM26.7729 42.368L26.4614 43.3182L26.4706 43.3213L26.4799 43.3241L26.7729 42.368ZM35.8449 42.944L36.1146 43.907L36.1322 43.902L36.1497 43.8964L35.8449 42.944ZM37.5729 41.984L36.8381 41.3057L36.8358 41.3083L37.5729 41.984ZM37.0929 38.72L36.5561 39.5637L36.5561 39.5637L37.0929 38.72ZM34.3569 37.616L34.606 36.6475L34.606 36.6475L34.3569 37.616ZM30.6129 36.752L30.4034 37.7298L30.4081 37.7308L30.6129 36.752ZM26.5329 35.648L26.2167 36.5967L26.2234 36.5989L26.5329 35.648ZM22.8369 33.92L22.2878 34.7557L22.2962 34.7613L22.3048 34.7666L22.8369 33.92ZM20.1009 31.088L19.2413 31.5991L19.2477 31.6094L20.1009 31.088ZM20.6769 21.152L19.8523 20.5861L19.8449 20.5973L20.6769 21.152ZM25.6689 17.216L25.2591 16.3038L25.2591 16.3038L25.6689 17.216ZM40.4049 16.496L40.1693 17.4678L40.1779 17.4699L40.1865 17.4718L40.4049 16.496ZM46.1169 18.656L47.0406 19.0393L47.377 18.2285L46.6167 17.7898L46.1169 18.656ZM43.1889 25.712L42.7138 26.5919L43.6882 27.1181L44.1126 26.0953L43.1889 25.712ZM38.4369 23.792L38.1622 24.7535L38.1713 24.7561L38.1805 24.7586L38.4369 23.792ZM30.7089 23.552L31.0137 24.5044L31.0308 24.499L31.0477 24.4929L30.7089 23.552ZM28.9809 24.608L28.1946 23.9902L28.1946 23.9902L28.9809 24.608ZM29.4609 27.92L28.9062 28.752L28.9288 28.7671L28.9522 28.7809L29.4609 27.92ZM32.1969 28.976L31.9479 29.9445L31.9639 29.9486L31.98 29.9522L32.1969 28.976ZM35.9409 29.792L35.7314 30.7698L35.7361 30.7708L35.9409 29.792ZM40.0209 30.896L39.7047 31.8447L39.7181 31.8491L39.7315 31.8532L40.0209 30.896ZM43.7649 32.624L43.2158 33.4597L43.2242 33.4653L43.2328 33.4706L43.7649 32.624ZM46.4529 35.456L45.5833 35.9496L45.5912 35.9637L45.5997 35.9775L46.4529 35.456ZM45.8289 45.248L44.9993 44.6896L44.9969 44.6933L45.8289 45.248ZM40.8849 49.184L40.4751 48.2718L40.4701 48.2741L40.8849 49.184ZM32.6289 49.672C29.9592 49.672 27.3887 49.3462 24.9148 48.6968L24.407 50.6312C27.0532 51.3258 29.7947 51.672 32.6289 51.672V49.672ZM24.9292 48.7007C22.4712 48.0162 20.5157 47.1585 19.0312 46.1491L17.9066 47.8029C19.6222 48.9695 21.7946 49.9038 24.3927 50.6273L24.9292 48.7007ZM19.3825 47.3827L22.5025 40.3747L20.6754 39.5613L17.5554 46.5693L19.3825 47.3827ZM21.0509 40.8109C22.6353 41.8222 24.4414 42.6559 26.4614 43.3182L27.0845 41.4178C25.2004 40.8 23.5506 40.0338 22.127 39.1251L21.0509 40.8109ZM26.4799 43.3241C28.5529 43.9594 30.6196 44.28 32.6769 44.28V42.28C30.8303 42.28 28.961 41.9926 27.0659 41.4119L26.4799 43.3241ZM32.6769 44.28C34.0339 44.28 35.1913 44.1655 36.1146 43.907L35.5753 41.981C34.8986 42.1705 33.944 42.28 32.6769 42.28V44.28ZM36.1497 43.8964C37.0243 43.6166 37.7894 43.2278 38.3101 42.6597L36.8358 41.3083C36.6525 41.5082 36.2656 41.7594 35.5402 41.9916L36.1497 43.8964ZM38.3077 42.6623C38.8546 42.0698 39.1489 41.3504 39.1489 40.544H37.1489C37.1489 40.8256 37.0593 41.0662 36.8381 41.3057L38.3077 42.6623ZM39.1489 40.544C39.1489 39.4002 38.5924 38.4889 37.6298 37.8763L36.5561 39.5637C37.0014 39.8471 37.1489 40.1518 37.1489 40.544H39.1489ZM37.6298 37.8763C36.8102 37.3547 35.7916 36.9524 34.606 36.6475L34.1079 38.5845C35.1623 38.8556 35.9677 39.1893 36.5561 39.5637L37.6298 37.8763ZM34.606 36.6475C33.4686 36.355 32.2056 36.0637 30.8178 35.7732L30.4081 37.7308C31.7723 38.0163 33.0053 38.301 34.1079 38.5845L34.606 36.6475ZM30.8225 35.7742C29.514 35.4938 28.1874 35.135 26.8425 34.6971L26.2234 36.5989C27.6305 37.057 29.0239 37.4342 30.4034 37.7298L30.8225 35.7742ZM26.8492 34.6993C25.5756 34.2748 24.4169 33.7319 23.3691 33.0734L22.3048 34.7666C23.497 35.516 24.8022 36.1252 26.2167 36.5967L26.8492 34.6993ZM23.3861 33.0843C22.3904 32.4299 21.5819 31.5936 20.9542 30.5665L19.2477 31.6094C20.028 32.8864 21.0435 33.9381 22.2878 34.7557L23.3861 33.0843ZM20.9605 30.5769C20.3721 29.5874 20.0449 28.289 20.0449 26.624H18.0449C18.0449 28.543 18.4217 30.2205 19.2414 31.5991L20.9605 30.5769ZM20.0449 26.624C20.0449 24.7996 20.5337 23.1696 21.509 21.7067L19.8449 20.5973C18.6442 22.3983 18.0449 24.4164 18.0449 26.624H20.0449ZM21.5015 21.7178C22.4967 20.2677 24.0008 19.0617 26.0788 18.1282L25.2591 16.3038C22.921 17.3543 21.0972 18.7723 19.8524 20.5862L21.5015 21.7178ZM26.0788 18.1282C28.1202 17.211 30.7221 16.728 33.9249 16.728V14.728C30.5358 14.728 27.6337 15.237 25.2591 16.3038L26.0788 18.1282ZM33.9249 16.728C36.0548 16.728 38.1357 16.9748 40.1693 17.4678L40.6405 15.5241C38.4502 14.9931 36.211 14.728 33.9249 14.728V16.728ZM40.1865 17.4718C42.2456 17.9328 44.0524 18.6194 45.6172 19.5222L46.6167 17.7898C44.8534 16.7726 42.8522 16.0191 40.6234 15.5202L40.1865 17.4718ZM45.1933 18.2727L42.2653 25.3287L44.1126 26.0953L47.0406 19.0393L45.1933 18.2727ZM43.6641 24.8321C42.0031 23.9351 40.3459 23.2639 38.6934 22.8254L38.1805 24.7586C39.6639 25.1521 41.1748 25.7609 42.7138 26.5919L43.6641 24.8321ZM38.7117 22.8305C37.0638 22.3597 35.4513 22.12 33.8769 22.12V24.12C35.2466 24.12 36.674 24.3283 38.1622 24.7535L38.7117 22.8305ZM33.8769 22.12C32.5053 22.12 31.3212 22.2687 30.3702 22.6111L31.0477 24.4929C31.6966 24.2593 32.6246 24.12 33.8769 24.12V22.12ZM30.4042 22.5996C29.4992 22.8892 28.7158 23.3268 28.1946 23.9902L29.7673 25.2258C29.9501 24.9932 30.3186 24.7268 31.0137 24.5044L30.4042 22.5996ZM28.1946 23.9902C27.7025 24.6165 27.4529 25.3466 27.4529 26.144H29.4529C29.4529 25.7894 29.5553 25.4955 29.7673 25.2258L28.1946 23.9902ZM27.4529 26.144C27.4529 27.251 27.988 28.1399 28.9062 28.752L30.0156 27.088C29.5899 26.8041 29.4529 26.509 29.4529 26.144H27.4529ZM28.9522 28.7809C29.7631 29.2601 30.7712 29.6419 31.9479 29.9445L32.446 28.0075C31.3827 27.7341 30.5668 27.4119 29.9697 27.0591L28.9522 28.7809ZM31.98 29.9522C33.1348 30.2088 34.3853 30.4814 35.7314 30.7698L36.1505 28.8142C34.8085 28.5266 33.563 28.2552 32.4139 27.9998L31.98 29.9522ZM35.7361 30.7708C37.0741 31.0508 38.3969 31.4088 39.7047 31.8447L40.3372 29.9473C38.9569 29.4872 37.5598 29.1092 36.1458 28.8132L35.7361 30.7708ZM39.7315 31.8532C41.0222 32.2434 42.1817 32.7802 43.2158 33.4597L44.3141 31.7883C43.1082 30.9958 41.7717 30.3806 40.3103 29.9388L39.7315 31.8532ZM43.2328 33.4706C44.2086 34.084 44.9904 34.905 45.5833 35.9496L47.3226 34.9624C46.5715 33.639 45.5612 32.572 44.2971 31.7774L43.2328 33.4706ZM45.5997 35.9775C46.1827 36.9315 46.5089 38.1933 46.5089 39.824H48.5089C48.5089 37.9347 48.1312 36.2845 47.3062 34.9345L45.5997 35.9775ZM46.5089 39.824C46.5089 41.5713 46.0115 43.1858 44.9994 44.6896L46.6585 45.8064C47.8864 43.9822 48.5089 41.9807 48.5089 39.824H46.5089ZM44.9969 44.6933C44.0352 46.1358 42.5517 47.3389 40.4751 48.2718L41.2948 50.0962C43.6342 49.0451 45.4467 47.6242 46.661 45.8027L44.9969 44.6933ZM40.4701 48.2741C38.4649 49.1883 35.8663 49.672 32.6289 49.672V51.672C36.0476 51.672 38.953 51.1637 41.2997 50.0939L40.4701 48.2741Z" fill="#B3B3B3" mask="url(#path-3-outside-1_2_562)"/>
</svg>
